<mxfile host="app.diagrams.net" agent="Mozilla/5.0 (Windows NT 10.0; Win64; x64) AppleWebKit/537.36 (KHTML, like Gecko) Chrome/131.0.0.0 Safari/537.36" version="25.0.3">
  <diagram id="C5RBs43oDa-KdzZeNtuy" name="Page-1">
    <mxGraphModel dx="4134" dy="2809" grid="1" gridSize="10" guides="1" tooltips="1" connect="1" arrows="1" fold="1" page="1" pageScale="1" pageWidth="827" pageHeight="1169" math="0" shadow="0">
      <root>
        <mxCell id="WIyWlLk6GJQsqaUBKTNV-0" />
        <mxCell id="WIyWlLk6GJQsqaUBKTNV-1" parent="WIyWlLk6GJQsqaUBKTNV-0" />
        <mxCell id="VIlZ6i_Y9cjGdGsZTxkm-7" value="&lt;p style=&quot;margin:0px;margin-top:4px;text-align:center;&quot;&gt;&lt;b&gt;Main&lt;/b&gt;&lt;/p&gt;" style="verticalAlign=top;align=left;overflow=fill;html=1;whiteSpace=wrap;" parent="WIyWlLk6GJQsqaUBKTNV-1" vertex="1">
          <mxGeometry x="10" y="11" width="96" height="60" as="geometry" />
        </mxCell>
        <mxCell id="VIlZ6i_Y9cjGdGsZTxkm-8" value="&lt;p style=&quot;margin:0px;margin-top:4px;text-align:center;&quot;&gt;&lt;b&gt;DrawArea&lt;/b&gt;&lt;/p&gt;" style="verticalAlign=top;align=left;overflow=fill;html=1;whiteSpace=wrap;" parent="WIyWlLk6GJQsqaUBKTNV-1" vertex="1">
          <mxGeometry x="-190" y="31" width="90" height="60" as="geometry" />
        </mxCell>
        <mxCell id="VIlZ6i_Y9cjGdGsZTxkm-9" value="&lt;p style=&quot;margin:0px;margin-top:4px;text-align:center;&quot;&gt;&lt;b&gt;DrawAreaListener&lt;/b&gt;&lt;/p&gt;" style="verticalAlign=top;align=left;overflow=fill;html=1;whiteSpace=wrap;" parent="WIyWlLk6GJQsqaUBKTNV-1" vertex="1">
          <mxGeometry x="-445" y="-269" width="115" height="60" as="geometry" />
        </mxCell>
        <mxCell id="VIlZ6i_Y9cjGdGsZTxkm-10" value="&lt;p style=&quot;margin:0px;margin-top:4px;text-align:center;&quot;&gt;&lt;b&gt;Blackboard&lt;/b&gt;&lt;/p&gt;" style="verticalAlign=top;align=left;overflow=fill;html=1;whiteSpace=wrap;" parent="WIyWlLk6GJQsqaUBKTNV-1" vertex="1">
          <mxGeometry x="-430" y="471" width="100" height="60" as="geometry" />
        </mxCell>
        <mxCell id="VIlZ6i_Y9cjGdGsZTxkm-11" value="&lt;p style=&quot;margin:0px;margin-top:4px;text-align:center;&quot;&gt;&lt;b&gt;Node&lt;/b&gt;&lt;/p&gt;" style="verticalAlign=top;align=left;overflow=fill;html=1;whiteSpace=wrap;" parent="WIyWlLk6GJQsqaUBKTNV-1" vertex="1">
          <mxGeometry x="-60" y="471" width="100" height="60" as="geometry" />
        </mxCell>
        <mxCell id="VIlZ6i_Y9cjGdGsZTxkm-16" value="«Abstract»&lt;br&gt;&lt;b&gt;Component&lt;/b&gt;" style="html=1;dropTarget=0;whiteSpace=wrap;" parent="WIyWlLk6GJQsqaUBKTNV-1" vertex="1">
          <mxGeometry x="200" y="471" width="100" height="60" as="geometry" />
        </mxCell>
        <mxCell id="VIlZ6i_Y9cjGdGsZTxkm-18" value="«Abstract»&lt;br&gt;&lt;b&gt;Decorator&lt;/b&gt;" style="html=1;dropTarget=0;whiteSpace=wrap;" parent="WIyWlLk6GJQsqaUBKTNV-1" vertex="1">
          <mxGeometry x="200" y="641" width="100" height="60" as="geometry" />
        </mxCell>
        <mxCell id="VIlZ6i_Y9cjGdGsZTxkm-22" value="Extends" style="endArrow=block;endSize=16;endFill=0;html=1;rounded=0;entryX=0;entryY=0.5;entryDx=0;entryDy=0;exitX=1;exitY=0.5;exitDx=0;exitDy=0;" parent="WIyWlLk6GJQsqaUBKTNV-1" source="VIlZ6i_Y9cjGdGsZTxkm-11" target="VIlZ6i_Y9cjGdGsZTxkm-16" edge="1">
          <mxGeometry width="160" relative="1" as="geometry">
            <mxPoint x="2" y="441" as="sourcePoint" />
            <mxPoint x="194" y="502.98" as="targetPoint" />
          </mxGeometry>
        </mxCell>
        <mxCell id="VIlZ6i_Y9cjGdGsZTxkm-23" value="Extends" style="endArrow=block;endSize=16;endFill=0;html=1;rounded=0;entryX=0.199;entryY=1.005;entryDx=0;entryDy=0;entryPerimeter=0;exitX=0.2;exitY=0;exitDx=0;exitDy=0;exitPerimeter=0;" parent="WIyWlLk6GJQsqaUBKTNV-1" source="VIlZ6i_Y9cjGdGsZTxkm-18" target="VIlZ6i_Y9cjGdGsZTxkm-16" edge="1">
          <mxGeometry width="160" relative="1" as="geometry">
            <mxPoint x="220" y="621" as="sourcePoint" />
            <mxPoint x="209" y="531" as="targetPoint" />
            <Array as="points" />
          </mxGeometry>
        </mxCell>
        <mxCell id="VIlZ6i_Y9cjGdGsZTxkm-25" value="" style="endArrow=diamondThin;endFill=0;endSize=24;html=1;rounded=0;exitX=0.804;exitY=1.005;exitDx=0;exitDy=0;exitPerimeter=0;" parent="WIyWlLk6GJQsqaUBKTNV-1" source="VIlZ6i_Y9cjGdGsZTxkm-16" edge="1">
          <mxGeometry width="160" relative="1" as="geometry">
            <mxPoint x="160" y="311" as="sourcePoint" />
            <mxPoint x="280" y="640" as="targetPoint" />
            <Array as="points" />
          </mxGeometry>
        </mxCell>
        <mxCell id="VIlZ6i_Y9cjGdGsZTxkm-28" value="&lt;p style=&quot;margin:0px;margin-top:4px;text-align:center;&quot;&gt;&lt;b&gt;ObserverDecorator&lt;/b&gt;&lt;/p&gt;" style="verticalAlign=top;align=left;overflow=fill;html=1;whiteSpace=wrap;" parent="WIyWlLk6GJQsqaUBKTNV-1" vertex="1">
          <mxGeometry x="-360" y="861" width="130" height="60" as="geometry" />
        </mxCell>
        <mxCell id="VIlZ6i_Y9cjGdGsZTxkm-29" value="&lt;p style=&quot;margin:0px;margin-top:4px;text-align:center;&quot;&gt;&lt;b&gt;FactoryDecorator&lt;/b&gt;&lt;/p&gt;" style="verticalAlign=top;align=left;overflow=fill;html=1;whiteSpace=wrap;" parent="WIyWlLk6GJQsqaUBKTNV-1" vertex="1">
          <mxGeometry x="-220" y="861" width="120" height="60" as="geometry" />
        </mxCell>
        <mxCell id="VIlZ6i_Y9cjGdGsZTxkm-30" value="&lt;p style=&quot;margin:0px;margin-top:4px;text-align:center;&quot;&gt;&lt;b&gt;ObservableDecorator&lt;/b&gt;&lt;/p&gt;" style="verticalAlign=top;align=left;overflow=fill;html=1;whiteSpace=wrap;" parent="WIyWlLk6GJQsqaUBKTNV-1" vertex="1">
          <mxGeometry x="-90" y="861" width="130" height="60" as="geometry" />
        </mxCell>
        <mxCell id="VIlZ6i_Y9cjGdGsZTxkm-31" value="Extends" style="endArrow=block;endSize=16;endFill=0;html=1;rounded=0;entryX=-0.006;entryY=0.327;entryDx=0;entryDy=0;exitX=0.5;exitY=0;exitDx=0;exitDy=0;entryPerimeter=0;" parent="WIyWlLk6GJQsqaUBKTNV-1" source="VIlZ6i_Y9cjGdGsZTxkm-28" target="VIlZ6i_Y9cjGdGsZTxkm-18" edge="1">
          <mxGeometry x="-0.0245" y="-1" width="160" relative="1" as="geometry">
            <mxPoint x="-248" y="826" as="sourcePoint" />
            <mxPoint x="190" y="661" as="targetPoint" />
            <Array as="points">
              <mxPoint x="-80" y="661" />
            </Array>
            <mxPoint as="offset" />
          </mxGeometry>
        </mxCell>
        <mxCell id="VIlZ6i_Y9cjGdGsZTxkm-33" value="Extends" style="endArrow=block;endSize=16;endFill=0;html=1;rounded=0;exitX=0.5;exitY=0;exitDx=0;exitDy=0;entryX=-0.008;entryY=0.811;entryDx=0;entryDy=0;entryPerimeter=0;" parent="WIyWlLk6GJQsqaUBKTNV-1" source="VIlZ6i_Y9cjGdGsZTxkm-29" target="VIlZ6i_Y9cjGdGsZTxkm-18" edge="1">
          <mxGeometry x="-0.0269" y="-1" width="160" relative="1" as="geometry">
            <mxPoint x="-110" y="851" as="sourcePoint" />
            <mxPoint x="190" y="691" as="targetPoint" />
            <mxPoint as="offset" />
            <Array as="points">
              <mxPoint x="-80" y="691" />
            </Array>
          </mxGeometry>
        </mxCell>
        <mxCell id="VIlZ6i_Y9cjGdGsZTxkm-34" value="Extends" style="endArrow=block;endSize=16;endFill=0;html=1;rounded=0;entryX=0;entryY=1;entryDx=0;entryDy=0;exitX=0.5;exitY=0;exitDx=0;exitDy=0;" parent="WIyWlLk6GJQsqaUBKTNV-1" source="VIlZ6i_Y9cjGdGsZTxkm-30" target="VIlZ6i_Y9cjGdGsZTxkm-18" edge="1">
          <mxGeometry width="160" relative="1" as="geometry">
            <mxPoint x="-76" y="858.96" as="sourcePoint" />
            <mxPoint x="190" y="711" as="targetPoint" />
            <mxPoint as="offset" />
          </mxGeometry>
        </mxCell>
        <mxCell id="VIlZ6i_Y9cjGdGsZTxkm-35" value="&lt;p style=&quot;margin:0px;margin-top:4px;text-align:center;&quot;&gt;&lt;b&gt;SingletonDecorator&lt;/b&gt;&lt;/p&gt;&lt;p style=&quot;margin:0px;margin-top:4px;text-align:center;&quot;&gt;&lt;b&gt;&lt;br&gt;&lt;/b&gt;&lt;/p&gt;" style="verticalAlign=top;align=left;overflow=fill;html=1;whiteSpace=wrap;" parent="WIyWlLk6GJQsqaUBKTNV-1" vertex="1">
          <mxGeometry x="50" y="861" width="120" height="60" as="geometry" />
        </mxCell>
        <mxCell id="VIlZ6i_Y9cjGdGsZTxkm-36" value="&lt;p style=&quot;margin:0px;margin-top:4px;text-align:center;&quot;&gt;&lt;b&gt;DecorationDecorator&lt;/b&gt;&lt;/p&gt;" style="verticalAlign=top;align=left;overflow=fill;html=1;whiteSpace=wrap;" parent="WIyWlLk6GJQsqaUBKTNV-1" vertex="1">
          <mxGeometry x="180" y="861" width="130" height="60" as="geometry" />
        </mxCell>
        <mxCell id="VIlZ6i_Y9cjGdGsZTxkm-37" value="&lt;p style=&quot;margin:0px;margin-top:4px;text-align:center;&quot;&gt;&lt;b&gt;DecoratableDecorator&lt;/b&gt;&lt;/p&gt;" style="verticalAlign=top;align=left;overflow=fill;html=1;whiteSpace=wrap;" parent="WIyWlLk6GJQsqaUBKTNV-1" vertex="1">
          <mxGeometry x="320" y="861" width="140" height="60" as="geometry" />
        </mxCell>
        <mxCell id="VIlZ6i_Y9cjGdGsZTxkm-38" value="&lt;p style=&quot;margin:0px;margin-top:4px;text-align:center;&quot;&gt;&lt;b&gt;ChainMemberDecorator&lt;/b&gt;&lt;/p&gt;" style="verticalAlign=top;align=left;overflow=fill;html=1;whiteSpace=wrap;" parent="WIyWlLk6GJQsqaUBKTNV-1" vertex="1">
          <mxGeometry x="470" y="861" width="140" height="60" as="geometry" />
        </mxCell>
        <mxCell id="VIlZ6i_Y9cjGdGsZTxkm-39" value="&lt;p style=&quot;margin:0px;margin-top:4px;text-align:center;&quot;&gt;&lt;b&gt;StrategyDecorator&lt;/b&gt;&lt;/p&gt;" style="verticalAlign=top;align=left;overflow=fill;html=1;whiteSpace=wrap;" parent="WIyWlLk6GJQsqaUBKTNV-1" vertex="1">
          <mxGeometry x="620" y="861" width="110" height="60" as="geometry" />
        </mxCell>
        <mxCell id="VIlZ6i_Y9cjGdGsZTxkm-40" value="&lt;p style=&quot;margin:0px;margin-top:4px;text-align:center;&quot;&gt;&lt;b&gt;ProductDecorator&lt;/b&gt;&lt;/p&gt;" style="verticalAlign=top;align=left;overflow=fill;html=1;whiteSpace=wrap;" parent="WIyWlLk6GJQsqaUBKTNV-1" vertex="1">
          <mxGeometry x="740" y="861" width="110" height="60" as="geometry" />
        </mxCell>
        <mxCell id="VIlZ6i_Y9cjGdGsZTxkm-41" value="Extends" style="endArrow=block;endSize=16;endFill=0;html=1;rounded=0;entryX=0.206;entryY=1.015;entryDx=0;entryDy=0;entryPerimeter=0;exitX=0.5;exitY=0;exitDx=0;exitDy=0;" parent="WIyWlLk6GJQsqaUBKTNV-1" source="VIlZ6i_Y9cjGdGsZTxkm-35" target="VIlZ6i_Y9cjGdGsZTxkm-18" edge="1">
          <mxGeometry width="160" relative="1" as="geometry">
            <mxPoint x="110" y="501" as="sourcePoint" />
            <mxPoint x="160" y="451.5" as="targetPoint" />
          </mxGeometry>
        </mxCell>
        <mxCell id="VIlZ6i_Y9cjGdGsZTxkm-42" value="Extends" style="endArrow=block;endSize=16;endFill=0;html=1;rounded=0;entryX=0.484;entryY=1.017;entryDx=0;entryDy=0;entryPerimeter=0;" parent="WIyWlLk6GJQsqaUBKTNV-1" target="VIlZ6i_Y9cjGdGsZTxkm-18" edge="1">
          <mxGeometry width="160" relative="1" as="geometry">
            <mxPoint x="251" y="861" as="sourcePoint" />
            <mxPoint x="250" y="711" as="targetPoint" />
          </mxGeometry>
        </mxCell>
        <mxCell id="VIlZ6i_Y9cjGdGsZTxkm-43" value="Extends" style="endArrow=block;endSize=16;endFill=0;html=1;rounded=0;entryX=0.785;entryY=1.023;entryDx=0;entryDy=0;exitX=0.5;exitY=0;exitDx=0;exitDy=0;entryPerimeter=0;" parent="WIyWlLk6GJQsqaUBKTNV-1" source="VIlZ6i_Y9cjGdGsZTxkm-37" target="VIlZ6i_Y9cjGdGsZTxkm-18" edge="1">
          <mxGeometry width="160" relative="1" as="geometry">
            <mxPoint x="352" y="861" as="sourcePoint" />
            <mxPoint x="260" y="712.02" as="targetPoint" />
          </mxGeometry>
        </mxCell>
        <mxCell id="VIlZ6i_Y9cjGdGsZTxkm-45" value="Extends" style="endArrow=block;endSize=16;endFill=0;html=1;rounded=0;exitX=0.5;exitY=0;exitDx=0;exitDy=0;entryX=1;entryY=1;entryDx=0;entryDy=0;" parent="WIyWlLk6GJQsqaUBKTNV-1" source="VIlZ6i_Y9cjGdGsZTxkm-38" target="VIlZ6i_Y9cjGdGsZTxkm-18" edge="1">
          <mxGeometry width="160" relative="1" as="geometry">
            <mxPoint x="370" y="460.5" as="sourcePoint" />
            <mxPoint x="300" y="701" as="targetPoint" />
          </mxGeometry>
        </mxCell>
        <mxCell id="VIlZ6i_Y9cjGdGsZTxkm-46" value="Extends" style="endArrow=block;endSize=16;endFill=0;html=1;rounded=0;entryX=0.998;entryY=0.825;entryDx=0;entryDy=0;exitX=0.469;exitY=-0.015;exitDx=0;exitDy=0;entryPerimeter=0;exitPerimeter=0;" parent="WIyWlLk6GJQsqaUBKTNV-1" source="VIlZ6i_Y9cjGdGsZTxkm-39" target="VIlZ6i_Y9cjGdGsZTxkm-18" edge="1">
          <mxGeometry x="-0.0756" width="160" relative="1" as="geometry">
            <mxPoint x="610" y="871" as="sourcePoint" />
            <mxPoint x="290" y="691" as="targetPoint" />
            <Array as="points">
              <mxPoint x="600" y="691" />
            </Array>
            <mxPoint as="offset" />
          </mxGeometry>
        </mxCell>
        <mxCell id="VIlZ6i_Y9cjGdGsZTxkm-47" value="Extends" style="endArrow=block;endSize=16;endFill=0;html=1;rounded=0;entryX=0.996;entryY=0.335;entryDx=0;entryDy=0;exitX=0.5;exitY=0;exitDx=0;exitDy=0;entryPerimeter=0;" parent="WIyWlLk6GJQsqaUBKTNV-1" source="VIlZ6i_Y9cjGdGsZTxkm-40" target="VIlZ6i_Y9cjGdGsZTxkm-18" edge="1">
          <mxGeometry x="-0.0851" width="160" relative="1" as="geometry">
            <mxPoint x="390" y="480.5" as="sourcePoint" />
            <mxPoint x="550" y="480.5" as="targetPoint" />
            <Array as="points">
              <mxPoint x="600" y="661" />
            </Array>
            <mxPoint as="offset" />
          </mxGeometry>
        </mxCell>
        <mxCell id="VIlZ6i_Y9cjGdGsZTxkm-51" value="" style="endArrow=diamondThin;endFill=0;endSize=24;html=1;rounded=0;exitX=0;exitY=0;exitDx=0;exitDy=0;entryX=0;entryY=0.25;entryDx=0;entryDy=0;" parent="WIyWlLk6GJQsqaUBKTNV-1" source="VIlZ6i_Y9cjGdGsZTxkm-10" target="VIlZ6i_Y9cjGdGsZTxkm-10" edge="1">
          <mxGeometry width="160" relative="1" as="geometry">
            <mxPoint x="-589" y="71" as="sourcePoint" />
            <mxPoint x="-589" y="101" as="targetPoint" />
            <Array as="points">
              <mxPoint x="-500" y="471" />
              <mxPoint x="-500" y="486" />
            </Array>
          </mxGeometry>
        </mxCell>
        <mxCell id="VIlZ6i_Y9cjGdGsZTxkm-55" value="" style="endArrow=diamondThin;endFill=0;endSize=24;html=1;rounded=0;entryX=1;entryY=0.5;entryDx=0;entryDy=0;exitX=0;exitY=0.5;exitDx=0;exitDy=0;" parent="WIyWlLk6GJQsqaUBKTNV-1" source="VIlZ6i_Y9cjGdGsZTxkm-11" target="VIlZ6i_Y9cjGdGsZTxkm-10" edge="1">
          <mxGeometry width="160" relative="1" as="geometry">
            <mxPoint x="-400" y="481" as="sourcePoint" />
            <mxPoint x="-240" y="481" as="targetPoint" />
          </mxGeometry>
        </mxCell>
        <mxCell id="VIlZ6i_Y9cjGdGsZTxkm-56" value="&lt;p style=&quot;margin:0px;margin-top:4px;text-align:center;&quot;&gt;&lt;b&gt;NodePanel&lt;/b&gt;&lt;/p&gt;" style="verticalAlign=top;align=left;overflow=fill;html=1;whiteSpace=wrap;" parent="WIyWlLk6GJQsqaUBKTNV-1" vertex="1">
          <mxGeometry x="-810" y="181" width="100" height="60" as="geometry" />
        </mxCell>
        <mxCell id="VIlZ6i_Y9cjGdGsZTxkm-58" value="" style="endArrow=open;endFill=1;endSize=12;html=1;rounded=0;exitX=0.003;exitY=0.833;exitDx=0;exitDy=0;entryX=0.5;entryY=0;entryDx=0;entryDy=0;exitPerimeter=0;" parent="WIyWlLk6GJQsqaUBKTNV-1" source="VIlZ6i_Y9cjGdGsZTxkm-9" target="VIlZ6i_Y9cjGdGsZTxkm-56" edge="1">
          <mxGeometry width="160" relative="1" as="geometry">
            <mxPoint x="-455" y="-139" as="sourcePoint" />
            <mxPoint x="-355" y="-139" as="targetPoint" />
            <Array as="points">
              <mxPoint x="-760" y="-219" />
            </Array>
          </mxGeometry>
        </mxCell>
        <mxCell id="VIlZ6i_Y9cjGdGsZTxkm-59" value="" style="endArrow=open;endFill=1;endSize=12;html=1;rounded=0;exitX=0;exitY=1;exitDx=0;exitDy=0;entryX=0.193;entryY=-0.033;entryDx=0;entryDy=0;entryPerimeter=0;" parent="WIyWlLk6GJQsqaUBKTNV-1" source="VIlZ6i_Y9cjGdGsZTxkm-9" target="VIlZ6i_Y9cjGdGsZTxkm-10" edge="1">
          <mxGeometry width="160" relative="1" as="geometry">
            <mxPoint x="-420" y="-44" as="sourcePoint" />
            <mxPoint x="-420" y="466" as="targetPoint" />
            <Array as="points">
              <mxPoint x="-680" y="-209" />
              <mxPoint x="-680" y="191" />
              <mxPoint x="-680" y="411" />
              <mxPoint x="-410" y="411" />
            </Array>
          </mxGeometry>
        </mxCell>
        <mxCell id="VIlZ6i_Y9cjGdGsZTxkm-62" value="" style="endArrow=open;endFill=1;endSize=12;html=1;rounded=0;exitX=0;exitY=0.5;exitDx=0;exitDy=0;entryX=0.857;entryY=0.006;entryDx=0;entryDy=0;entryPerimeter=0;" parent="WIyWlLk6GJQsqaUBKTNV-1" source="VIlZ6i_Y9cjGdGsZTxkm-8" target="VIlZ6i_Y9cjGdGsZTxkm-10" edge="1">
          <mxGeometry width="160" relative="1" as="geometry">
            <mxPoint x="-690" y="41" as="sourcePoint" />
            <mxPoint x="-330" y="471" as="targetPoint" />
            <Array as="points">
              <mxPoint x="-280" y="61" />
              <mxPoint x="-280" y="381" />
              <mxPoint x="-344" y="381" />
            </Array>
          </mxGeometry>
        </mxCell>
        <mxCell id="VIlZ6i_Y9cjGdGsZTxkm-71" value="" style="endArrow=open;endFill=1;endSize=12;html=1;rounded=0;exitX=0.5;exitY=1;exitDx=0;exitDy=0;entryX=0;entryY=0.5;entryDx=0;entryDy=0;" parent="WIyWlLk6GJQsqaUBKTNV-1" source="VIlZ6i_Y9cjGdGsZTxkm-56" target="VIlZ6i_Y9cjGdGsZTxkm-10" edge="1">
          <mxGeometry width="160" relative="1" as="geometry">
            <mxPoint x="-100" y="-159" as="sourcePoint" />
            <mxPoint x="-640" y="541" as="targetPoint" />
            <Array as="points">
              <mxPoint x="-760" y="501" />
            </Array>
          </mxGeometry>
        </mxCell>
        <mxCell id="VIlZ6i_Y9cjGdGsZTxkm-72" value="&lt;p style=&quot;margin:0px;margin-top:4px;text-align:center;&quot;&gt;&lt;b&gt;NodeDecoratorPanel&lt;/b&gt;&lt;/p&gt;" style="verticalAlign=top;align=left;overflow=fill;html=1;whiteSpace=wrap;" parent="WIyWlLk6GJQsqaUBKTNV-1" vertex="1">
          <mxGeometry x="-450" y="191" width="130" height="60" as="geometry" />
        </mxCell>
        <mxCell id="VIlZ6i_Y9cjGdGsZTxkm-73" value="" style="endArrow=open;endFill=1;endSize=12;html=1;rounded=0;entryX=0.477;entryY=0.006;entryDx=0;entryDy=0;exitX=0.5;exitY=1;exitDx=0;exitDy=0;entryPerimeter=0;" parent="WIyWlLk6GJQsqaUBKTNV-1" source="VIlZ6i_Y9cjGdGsZTxkm-72" target="VIlZ6i_Y9cjGdGsZTxkm-10" edge="1">
          <mxGeometry width="160" relative="1" as="geometry">
            <mxPoint x="-529" y="191" as="sourcePoint" />
            <mxPoint x="-429" y="471" as="targetPoint" />
            <Array as="points" />
          </mxGeometry>
        </mxCell>
        <mxCell id="VIlZ6i_Y9cjGdGsZTxkm-74" value="" style="endArrow=open;endFill=1;endSize=12;html=1;rounded=0;entryX=0.5;entryY=0;entryDx=0;entryDy=0;" parent="WIyWlLk6GJQsqaUBKTNV-1" source="VIlZ6i_Y9cjGdGsZTxkm-9" target="VIlZ6i_Y9cjGdGsZTxkm-72" edge="1">
          <mxGeometry width="160" relative="1" as="geometry">
            <mxPoint x="-533" y="-259" as="sourcePoint" />
            <mxPoint x="-373" y="-259" as="targetPoint" />
            <Array as="points">
              <mxPoint x="-385" y="51" />
            </Array>
          </mxGeometry>
        </mxCell>
        <mxCell id="VIlZ6i_Y9cjGdGsZTxkm-79" value="&lt;p style=&quot;margin:0px;margin-top:4px;text-align:center;&quot;&gt;&lt;b&gt;MenuBar&lt;/b&gt;&lt;/p&gt;" style="verticalAlign=top;align=left;overflow=fill;html=1;whiteSpace=wrap;" parent="WIyWlLk6GJQsqaUBKTNV-1" vertex="1">
          <mxGeometry x="10" y="-119" width="96" height="60" as="geometry" />
        </mxCell>
        <mxCell id="VIlZ6i_Y9cjGdGsZTxkm-81" value="" style="endArrow=open;endFill=1;endSize=12;html=1;rounded=0;entryX=0;entryY=0.5;entryDx=0;entryDy=0;exitX=1;exitY=1;exitDx=0;exitDy=0;" parent="WIyWlLk6GJQsqaUBKTNV-1" source="VIlZ6i_Y9cjGdGsZTxkm-9" target="VIlZ6i_Y9cjGdGsZTxkm-79" edge="1">
          <mxGeometry width="160" relative="1" as="geometry">
            <mxPoint x="-130" y="-329" as="sourcePoint" />
            <mxPoint x="60" y="-159" as="targetPoint" />
            <Array as="points">
              <mxPoint x="-330" y="-89" />
            </Array>
          </mxGeometry>
        </mxCell>
        <mxCell id="VIlZ6i_Y9cjGdGsZTxkm-82" value="&lt;p style=&quot;margin:0px;margin-top:4px;text-align:center;&quot;&gt;&lt;b&gt;CodeArea&lt;/b&gt;&lt;/p&gt;" style="verticalAlign=top;align=left;overflow=fill;html=1;whiteSpace=wrap;" parent="WIyWlLk6GJQsqaUBKTNV-1" vertex="1">
          <mxGeometry x="350" y="111" width="90" height="60" as="geometry" />
        </mxCell>
        <mxCell id="VIlZ6i_Y9cjGdGsZTxkm-83" value="" style="endArrow=diamondThin;endFill=0;endSize=24;html=1;rounded=0;entryX=0;entryY=0.833;entryDx=0;entryDy=0;exitX=1;exitY=0;exitDx=0;exitDy=0;entryPerimeter=0;" parent="WIyWlLk6GJQsqaUBKTNV-1" source="VIlZ6i_Y9cjGdGsZTxkm-8" edge="1">
          <mxGeometry width="160" relative="1" as="geometry">
            <mxPoint x="-100" y="51.01999999999998" as="sourcePoint" />
            <mxPoint x="10" y="50.99999999999977" as="targetPoint" />
            <Array as="points">
              <mxPoint x="-20" y="31" />
              <mxPoint x="-20" y="51" />
            </Array>
          </mxGeometry>
        </mxCell>
        <mxCell id="VIlZ6i_Y9cjGdGsZTxkm-85" value="" style="endArrow=diamondThin;endFill=0;endSize=24;html=1;rounded=0;exitX=-0.007;exitY=0.175;exitDx=0;exitDy=0;entryX=0.519;entryY=1.035;entryDx=0;entryDy=0;entryPerimeter=0;exitPerimeter=0;" parent="WIyWlLk6GJQsqaUBKTNV-1" source="VIlZ6i_Y9cjGdGsZTxkm-82" target="VIlZ6i_Y9cjGdGsZTxkm-7" edge="1">
          <mxGeometry width="160" relative="1" as="geometry">
            <mxPoint x="353" y="101" as="sourcePoint" />
            <mxPoint x="108" y="61" as="targetPoint" />
            <Array as="points">
              <mxPoint x="60" y="121" />
            </Array>
          </mxGeometry>
        </mxCell>
        <mxCell id="VIlZ6i_Y9cjGdGsZTxkm-86" value="&lt;p style=&quot;margin:0px;margin-top:4px;text-align:center;&quot;&gt;&lt;b&gt;JTabbedPane&lt;/b&gt;&lt;/p&gt;" style="verticalAlign=top;align=left;overflow=fill;html=1;whiteSpace=wrap;" parent="WIyWlLk6GJQsqaUBKTNV-1" vertex="1">
          <mxGeometry x="314" y="31" width="90" height="60" as="geometry" />
        </mxCell>
        <mxCell id="VIlZ6i_Y9cjGdGsZTxkm-87" value="" style="endArrow=diamondThin;endFill=0;endSize=24;html=1;rounded=0;exitX=0;exitY=0.5;exitDx=0;exitDy=0;entryX=0.994;entryY=0.845;entryDx=0;entryDy=0;entryPerimeter=0;" parent="WIyWlLk6GJQsqaUBKTNV-1" source="VIlZ6i_Y9cjGdGsZTxkm-86" target="VIlZ6i_Y9cjGdGsZTxkm-7" edge="1">
          <mxGeometry width="160" relative="1" as="geometry">
            <mxPoint x="204" y="-69" as="sourcePoint" />
            <mxPoint x="108" y="41" as="targetPoint" />
          </mxGeometry>
        </mxCell>
        <mxCell id="VIlZ6i_Y9cjGdGsZTxkm-89" value="" style="endArrow=open;endFill=1;endSize=12;html=1;rounded=0;exitX=0.556;exitY=1;exitDx=0;exitDy=0;exitPerimeter=0;" parent="WIyWlLk6GJQsqaUBKTNV-1" source="VIlZ6i_Y9cjGdGsZTxkm-82" edge="1">
          <mxGeometry width="160" relative="1" as="geometry">
            <mxPoint x="450" y="311" as="sourcePoint" />
            <mxPoint x="-330" y="471" as="targetPoint" />
            <Array as="points">
              <mxPoint x="400" y="401" />
              <mxPoint x="-280" y="401" />
            </Array>
          </mxGeometry>
        </mxCell>
        <mxCell id="gYxHMhcM7wOQvJTv5Ihb-0" value="" style="endArrow=diamondThin;endFill=0;endSize=24;html=1;rounded=0;entryX=0.5;entryY=0;entryDx=0;entryDy=0;exitX=0.5;exitY=1;exitDx=0;exitDy=0;" parent="WIyWlLk6GJQsqaUBKTNV-1" source="VIlZ6i_Y9cjGdGsZTxkm-79" target="VIlZ6i_Y9cjGdGsZTxkm-7" edge="1">
          <mxGeometry width="160" relative="1" as="geometry">
            <mxPoint x="163" y="-129" as="sourcePoint" />
            <mxPoint x="60" y="11" as="targetPoint" />
          </mxGeometry>
        </mxCell>
        <mxCell id="gYxHMhcM7wOQvJTv5Ihb-1" value="" style="endArrow=diamondThin;endFill=0;endSize=24;html=1;rounded=0;entryX=-0.007;entryY=0.128;entryDx=0;entryDy=0;exitX=1;exitY=0;exitDx=0;exitDy=0;entryPerimeter=0;" parent="WIyWlLk6GJQsqaUBKTNV-1" source="VIlZ6i_Y9cjGdGsZTxkm-72" target="VIlZ6i_Y9cjGdGsZTxkm-7" edge="1">
          <mxGeometry width="160" relative="1" as="geometry">
            <mxPoint x="-210" y="-9" as="sourcePoint" />
            <mxPoint x="10" y="10" as="targetPoint" />
            <Array as="points">
              <mxPoint x="-320" y="21" />
            </Array>
          </mxGeometry>
        </mxCell>
        <mxCell id="QWpLgpskr140SuTvupG5-3" value="" style="endArrow=open;endFill=1;endSize=12;html=1;rounded=0;exitX=1;exitY=0;exitDx=0;exitDy=0;entryX=0.542;entryY=0.011;entryDx=0;entryDy=0;entryPerimeter=0;" parent="WIyWlLk6GJQsqaUBKTNV-1" source="VIlZ6i_Y9cjGdGsZTxkm-82" target="QWpLgpskr140SuTvupG5-51" edge="1">
          <mxGeometry width="160" relative="1" as="geometry">
            <mxPoint x="404" y="111" as="sourcePoint" />
            <mxPoint x="645" y="-129" as="targetPoint" />
            <Array as="points">
              <mxPoint x="440" y="-179" />
              <mxPoint x="645" y="-179" />
            </Array>
          </mxGeometry>
        </mxCell>
        <mxCell id="QWpLgpskr140SuTvupG5-4" value="&lt;p style=&quot;margin:0px;margin-top:4px;text-align:center;&quot;&gt;&lt;b&gt;ProductHandler&lt;/b&gt;&lt;/p&gt;" style="verticalAlign=top;align=left;overflow=fill;html=1;whiteSpace=wrap;" parent="WIyWlLk6GJQsqaUBKTNV-1" vertex="1">
          <mxGeometry x="460" y="111" width="100" height="60" as="geometry" />
        </mxCell>
        <mxCell id="QWpLgpskr140SuTvupG5-6" value="Extends" style="endArrow=block;endSize=16;endFill=0;html=1;rounded=0;entryX=0;entryY=0;entryDx=0;entryDy=0;exitX=0;exitY=0;exitDx=0;exitDy=0;" parent="WIyWlLk6GJQsqaUBKTNV-1" source="QWpLgpskr140SuTvupG5-4" target="QWpLgpskr140SuTvupG5-51" edge="1">
          <mxGeometry x="-0.61" width="160" relative="1" as="geometry">
            <mxPoint x="470" y="61" as="sourcePoint" />
            <mxPoint x="599.0099999999998" y="-119.99999999999977" as="targetPoint" />
            <Array as="points">
              <mxPoint x="460" y="-129" />
            </Array>
            <mxPoint as="offset" />
          </mxGeometry>
        </mxCell>
        <mxCell id="QWpLgpskr140SuTvupG5-7" value="&lt;p style=&quot;margin:0px;margin-top:4px;text-align:center;&quot;&gt;&lt;b&gt;ObservableHandler&lt;/b&gt;&lt;/p&gt;" style="verticalAlign=top;align=left;overflow=fill;html=1;whiteSpace=wrap;" parent="WIyWlLk6GJQsqaUBKTNV-1" vertex="1">
          <mxGeometry x="570" y="111" width="120" height="60" as="geometry" />
        </mxCell>
        <mxCell id="QWpLgpskr140SuTvupG5-8" value="Extends" style="endArrow=block;endSize=16;endFill=0;html=1;rounded=0;entryX=0;entryY=0.5;entryDx=0;entryDy=0;exitX=0;exitY=0;exitDx=0;exitDy=0;" parent="WIyWlLk6GJQsqaUBKTNV-1" source="QWpLgpskr140SuTvupG5-7" target="QWpLgpskr140SuTvupG5-51" edge="1">
          <mxGeometry x="-0.3411" width="160" relative="1" as="geometry">
            <mxPoint x="580" y="112" as="sourcePoint" />
            <mxPoint x="600" y="-99" as="targetPoint" />
            <Array as="points">
              <mxPoint x="500" y="71" />
              <mxPoint x="500" y="-9" />
              <mxPoint x="500" y="-99" />
            </Array>
            <mxPoint as="offset" />
          </mxGeometry>
        </mxCell>
        <mxCell id="QWpLgpskr140SuTvupG5-9" value="" style="endArrow=diamondThin;endFill=0;endSize=24;html=1;rounded=0;entryX=0.174;entryY=0.006;entryDx=0;entryDy=0;exitX=-0.014;exitY=0.745;exitDx=0;exitDy=0;exitPerimeter=0;entryPerimeter=0;" parent="WIyWlLk6GJQsqaUBKTNV-1" source="QWpLgpskr140SuTvupG5-51" target="QWpLgpskr140SuTvupG5-7" edge="1">
          <mxGeometry width="160" relative="1" as="geometry">
            <mxPoint x="600" y="-84" as="sourcePoint" />
            <mxPoint x="590" y="111" as="targetPoint" />
            <Array as="points">
              <mxPoint x="530" y="-84" />
              <mxPoint x="530" y="61" />
            </Array>
          </mxGeometry>
        </mxCell>
        <mxCell id="QWpLgpskr140SuTvupG5-10" value="&lt;p style=&quot;margin:0px;margin-top:4px;text-align:center;&quot;&gt;&lt;b&gt;ObserverHandler&lt;/b&gt;&lt;/p&gt;" style="verticalAlign=top;align=left;overflow=fill;html=1;whiteSpace=wrap;" parent="WIyWlLk6GJQsqaUBKTNV-1" vertex="1">
          <mxGeometry x="700" y="111" width="110" height="60" as="geometry" />
        </mxCell>
        <mxCell id="QWpLgpskr140SuTvupG5-11" value="Extends" style="endArrow=block;endSize=16;endFill=0;html=1;rounded=0;entryX=0.103;entryY=1.017;entryDx=0;entryDy=0;exitX=0;exitY=0;exitDx=0;exitDy=0;entryPerimeter=0;" parent="WIyWlLk6GJQsqaUBKTNV-1" source="QWpLgpskr140SuTvupG5-10" target="QWpLgpskr140SuTvupG5-51" edge="1">
          <mxGeometry x="0.1355" y="10" width="160" relative="1" as="geometry">
            <mxPoint x="700" y="111" as="sourcePoint" />
            <mxPoint x="600" y="-69" as="targetPoint" />
            <Array as="points">
              <mxPoint x="640" y="91" />
              <mxPoint x="600" y="81" />
              <mxPoint x="600" y="31" />
              <mxPoint x="600" y="-29" />
            </Array>
            <mxPoint as="offset" />
          </mxGeometry>
        </mxCell>
        <mxCell id="QWpLgpskr140SuTvupG5-12" value="" style="endArrow=diamondThin;endFill=0;endSize=24;html=1;rounded=0;exitX=0.284;exitY=1.024;exitDx=0;exitDy=0;exitPerimeter=0;entryX=0.147;entryY=0.001;entryDx=0;entryDy=0;entryPerimeter=0;" parent="WIyWlLk6GJQsqaUBKTNV-1" target="QWpLgpskr140SuTvupG5-10" edge="1">
          <mxGeometry width="160" relative="1" as="geometry">
            <mxPoint x="619.9999999999999" y="-68.99999999999994" as="sourcePoint" />
            <mxPoint x="721.6" y="109.56" as="targetPoint" />
            <Array as="points">
              <mxPoint x="621.6" y="69.56" />
              <mxPoint x="671.6" y="89.56" />
              <mxPoint x="691.6" y="99.56" />
            </Array>
          </mxGeometry>
        </mxCell>
        <mxCell id="QWpLgpskr140SuTvupG5-13" value="&lt;p style=&quot;margin:0px;margin-top:4px;text-align:center;&quot;&gt;&lt;b&gt;ChainMemberHandler&lt;/b&gt;&lt;/p&gt;" style="verticalAlign=top;align=left;overflow=fill;html=1;whiteSpace=wrap;" parent="WIyWlLk6GJQsqaUBKTNV-1" vertex="1">
          <mxGeometry x="820" y="111" width="140" height="60" as="geometry" />
        </mxCell>
        <mxCell id="QWpLgpskr140SuTvupG5-14" value="Extends" style="endArrow=block;endSize=16;endFill=0;html=1;rounded=0;entryX=0.482;entryY=1.014;entryDx=0;entryDy=0;exitX=-0.026;exitY=0.039;exitDx=0;exitDy=0;entryPerimeter=0;exitPerimeter=0;" parent="WIyWlLk6GJQsqaUBKTNV-1" source="QWpLgpskr140SuTvupG5-13" target="QWpLgpskr140SuTvupG5-51" edge="1">
          <mxGeometry x="0.2659" y="10" width="160" relative="1" as="geometry">
            <mxPoint x="804" y="111" as="sourcePoint" />
            <mxPoint x="638.9699999999998" y="-70.01999999999975" as="targetPoint" />
            <Array as="points">
              <mxPoint x="744" y="91" />
              <mxPoint x="640" y="61" />
              <mxPoint x="640" y="21" />
              <mxPoint x="640" y="-29" />
            </Array>
            <mxPoint as="offset" />
          </mxGeometry>
        </mxCell>
        <mxCell id="QWpLgpskr140SuTvupG5-15" value="" style="endArrow=diamondThin;endFill=0;endSize=24;html=1;rounded=0;entryX=0.129;entryY=-0.013;entryDx=0;entryDy=0;entryPerimeter=0;exitX=0.596;exitY=1.024;exitDx=0;exitDy=0;exitPerimeter=0;" parent="WIyWlLk6GJQsqaUBKTNV-1" target="QWpLgpskr140SuTvupG5-13" edge="1">
          <mxGeometry width="160" relative="1" as="geometry">
            <mxPoint x="649.5999999999999" y="-68.99999999999994" as="sourcePoint" />
            <mxPoint x="838.9000000000001" y="108.78000000000003" as="targetPoint" />
            <Array as="points">
              <mxPoint x="650" y="49.56" />
            </Array>
          </mxGeometry>
        </mxCell>
        <mxCell id="QWpLgpskr140SuTvupG5-16" value="&lt;p style=&quot;margin:0px;margin-top:4px;text-align:center;&quot;&gt;&lt;b&gt;DecoratableHandler&lt;/b&gt;&lt;/p&gt;" style="verticalAlign=top;align=left;overflow=fill;html=1;whiteSpace=wrap;" parent="WIyWlLk6GJQsqaUBKTNV-1" vertex="1">
          <mxGeometry x="980" y="111" width="120" height="60" as="geometry" />
        </mxCell>
        <mxCell id="QWpLgpskr140SuTvupG5-17" value="Extends" style="endArrow=block;endSize=16;endFill=0;html=1;rounded=0;entryX=0.769;entryY=1.024;entryDx=0;entryDy=0;exitX=0.007;exitY=0.044;exitDx=0;exitDy=0;entryPerimeter=0;exitPerimeter=0;" parent="WIyWlLk6GJQsqaUBKTNV-1" source="QWpLgpskr140SuTvupG5-16" target="QWpLgpskr140SuTvupG5-51" edge="1">
          <mxGeometry x="0.3888" width="160" relative="1" as="geometry">
            <mxPoint x="845" y="111" as="sourcePoint" />
            <mxPoint x="667.5" y="-69" as="targetPoint" />
            <Array as="points">
              <mxPoint x="800" y="81" />
              <mxPoint x="670" y="41" />
            </Array>
            <mxPoint as="offset" />
          </mxGeometry>
        </mxCell>
        <mxCell id="QWpLgpskr140SuTvupG5-18" value="" style="endArrow=diamondThin;endFill=0;endSize=24;html=1;rounded=0;entryX=0.174;entryY=-0.008;entryDx=0;entryDy=0;entryPerimeter=0;exitX=0.909;exitY=0.992;exitDx=0;exitDy=0;exitPerimeter=0;" parent="WIyWlLk6GJQsqaUBKTNV-1" source="QWpLgpskr140SuTvupG5-51" target="QWpLgpskr140SuTvupG5-16" edge="1">
          <mxGeometry width="160" relative="1" as="geometry">
            <mxPoint x="681.9899999999998" y="-67.98000000000002" as="sourcePoint" />
            <mxPoint x="876" y="110" as="targetPoint" />
            <Array as="points">
              <mxPoint x="682" y="31" />
            </Array>
          </mxGeometry>
        </mxCell>
        <mxCell id="QWpLgpskr140SuTvupG5-19" value="&lt;p style=&quot;margin:0px;margin-top:4px;text-align:center;&quot;&gt;&lt;b&gt;DecorationHandler&lt;/b&gt;&lt;/p&gt;" style="verticalAlign=top;align=left;overflow=fill;html=1;whiteSpace=wrap;" parent="WIyWlLk6GJQsqaUBKTNV-1" vertex="1">
          <mxGeometry x="1110" y="111" width="120" height="60" as="geometry" />
        </mxCell>
        <mxCell id="QWpLgpskr140SuTvupG5-20" value="Extends" style="endArrow=block;endSize=16;endFill=0;html=1;rounded=0;entryX=1;entryY=0.833;entryDx=0;entryDy=0;exitX=0.436;exitY=0.029;exitDx=0;exitDy=0;exitPerimeter=0;entryPerimeter=0;" parent="WIyWlLk6GJQsqaUBKTNV-1" source="QWpLgpskr140SuTvupG5-19" target="QWpLgpskr140SuTvupG5-51" edge="1">
          <mxGeometry x="0.4471" width="160" relative="1" as="geometry">
            <mxPoint x="1032" y="101" as="sourcePoint" />
            <mxPoint x="690" y="-79" as="targetPoint" />
            <Array as="points">
              <mxPoint x="940" y="-79" />
              <mxPoint x="820" y="-79" />
            </Array>
            <mxPoint as="offset" />
          </mxGeometry>
        </mxCell>
        <mxCell id="QWpLgpskr140SuTvupG5-21" value="" style="endArrow=diamondThin;endFill=0;endSize=24;html=1;rounded=0;entryX=0.162;entryY=-0.018;entryDx=0;entryDy=0;exitX=1.013;exitY=0.998;exitDx=0;exitDy=0;exitPerimeter=0;entryPerimeter=0;" parent="WIyWlLk6GJQsqaUBKTNV-1" source="QWpLgpskr140SuTvupG5-51" target="QWpLgpskr140SuTvupG5-19" edge="1">
          <mxGeometry width="160" relative="1" as="geometry">
            <mxPoint x="690" y="-69" as="sourcePoint" />
            <mxPoint x="1070" y="109" as="targetPoint" />
            <Array as="points">
              <mxPoint x="930" y="-69" />
            </Array>
          </mxGeometry>
        </mxCell>
        <mxCell id="QWpLgpskr140SuTvupG5-23" value="&lt;p style=&quot;margin:0px;margin-top:4px;text-align:center;&quot;&gt;&lt;b&gt;StrategyHandler&lt;/b&gt;&lt;/p&gt;" style="verticalAlign=top;align=left;overflow=fill;html=1;whiteSpace=wrap;" parent="WIyWlLk6GJQsqaUBKTNV-1" vertex="1">
          <mxGeometry x="1210" y="111" width="100" height="60" as="geometry" />
        </mxCell>
        <mxCell id="QWpLgpskr140SuTvupG5-24" value="Extends" style="endArrow=block;endSize=16;endFill=0;html=1;rounded=0;entryX=0.988;entryY=0.504;entryDx=0;entryDy=0;exitX=0.5;exitY=0;exitDx=0;exitDy=0;entryPerimeter=0;" parent="WIyWlLk6GJQsqaUBKTNV-1" source="QWpLgpskr140SuTvupG5-23" target="QWpLgpskr140SuTvupG5-51" edge="1">
          <mxGeometry x="0.5432" width="160" relative="1" as="geometry">
            <mxPoint x="1176" y="108" as="sourcePoint" />
            <mxPoint x="690" y="-99" as="targetPoint" />
            <Array as="points">
              <mxPoint x="960" y="-99" />
              <mxPoint x="810" y="-99" />
            </Array>
            <mxPoint as="offset" />
          </mxGeometry>
        </mxCell>
        <mxCell id="QWpLgpskr140SuTvupG5-25" value="" style="endArrow=diamondThin;endFill=0;endSize=24;html=1;rounded=0;entryX=0.203;entryY=-0.004;entryDx=0;entryDy=0;exitX=1.005;exitY=0.665;exitDx=0;exitDy=0;exitPerimeter=0;entryPerimeter=0;" parent="WIyWlLk6GJQsqaUBKTNV-1" source="QWpLgpskr140SuTvupG5-51" target="QWpLgpskr140SuTvupG5-23" edge="1">
          <mxGeometry width="160" relative="1" as="geometry">
            <mxPoint x="690" y="-89" as="sourcePoint" />
            <mxPoint x="1160" y="111" as="targetPoint" />
            <Array as="points">
              <mxPoint x="950" y="-89" />
            </Array>
          </mxGeometry>
        </mxCell>
        <mxCell id="QWpLgpskr140SuTvupG5-26" value="&lt;p style=&quot;margin:0px;margin-top:4px;text-align:center;&quot;&gt;&lt;b&gt;SingletonHandler&lt;/b&gt;&lt;/p&gt;" style="verticalAlign=top;align=left;overflow=fill;html=1;whiteSpace=wrap;" parent="WIyWlLk6GJQsqaUBKTNV-1" vertex="1">
          <mxGeometry x="1320.5" y="111" width="109.5" height="60" as="geometry" />
        </mxCell>
        <mxCell id="QWpLgpskr140SuTvupG5-27" value="Extends" style="endArrow=block;endSize=16;endFill=0;html=1;rounded=0;entryX=1.013;entryY=0.129;entryDx=0;entryDy=0;exitX=0.454;exitY=-0.014;exitDx=0;exitDy=0;entryPerimeter=0;exitPerimeter=0;" parent="WIyWlLk6GJQsqaUBKTNV-1" source="QWpLgpskr140SuTvupG5-26" edge="1">
          <mxGeometry x="0.6236" width="160" relative="1" as="geometry">
            <mxPoint x="1365.628" y="102.60000000000014" as="sourcePoint" />
            <mxPoint x="689.9999999999998" y="-129" as="targetPoint" />
            <Array as="points">
              <mxPoint x="1048.7" y="-128.74" />
            </Array>
            <mxPoint as="offset" />
          </mxGeometry>
        </mxCell>
        <mxCell id="QWpLgpskr140SuTvupG5-28" value="" style="endArrow=diamondThin;endFill=0;endSize=24;html=1;rounded=0;entryX=0.172;entryY=0.011;entryDx=0;entryDy=0;exitX=0.992;exitY=0.328;exitDx=0;exitDy=0;exitPerimeter=0;entryPerimeter=0;" parent="WIyWlLk6GJQsqaUBKTNV-1" source="QWpLgpskr140SuTvupG5-51" target="QWpLgpskr140SuTvupG5-26" edge="1">
          <mxGeometry width="160" relative="1" as="geometry">
            <mxPoint x="690" y="-109" as="sourcePoint" />
            <mxPoint x="1260" y="111" as="targetPoint" />
            <Array as="points">
              <mxPoint x="1050" y="-109" />
            </Array>
          </mxGeometry>
        </mxCell>
        <mxCell id="QWpLgpskr140SuTvupG5-29" value="&lt;p style=&quot;margin:0px;margin-top:4px;text-align:center;&quot;&gt;&lt;b&gt;FactoryHandler&lt;/b&gt;&lt;/p&gt;" style="verticalAlign=top;align=left;overflow=fill;html=1;whiteSpace=wrap;" parent="WIyWlLk6GJQsqaUBKTNV-1" vertex="1">
          <mxGeometry x="1440" y="111" width="100" height="60" as="geometry" />
        </mxCell>
        <mxCell id="QWpLgpskr140SuTvupG5-30" value="Extends" style="endArrow=block;endSize=16;endFill=0;html=1;rounded=0;exitX=0.406;exitY=-0.013;exitDx=0;exitDy=0;exitPerimeter=0;entryX=0.78;entryY=0.004;entryDx=0;entryDy=0;entryPerimeter=0;" parent="WIyWlLk6GJQsqaUBKTNV-1" source="QWpLgpskr140SuTvupG5-29" target="QWpLgpskr140SuTvupG5-51" edge="1">
          <mxGeometry x="0.5489" width="160" relative="1" as="geometry">
            <mxPoint x="1387" y="110" as="sourcePoint" />
            <mxPoint x="667.5" y="-129" as="targetPoint" />
            <Array as="points">
              <mxPoint x="1240" y="-199" />
              <mxPoint x="668" y="-199" />
            </Array>
            <mxPoint as="offset" />
          </mxGeometry>
        </mxCell>
        <mxCell id="QWpLgpskr140SuTvupG5-31" value="" style="endArrow=diamondThin;endFill=0;endSize=24;html=1;rounded=0;entryX=0.22;entryY=0.001;entryDx=0;entryDy=0;exitX=0.903;exitY=0.008;exitDx=0;exitDy=0;exitPerimeter=0;entryPerimeter=0;" parent="WIyWlLk6GJQsqaUBKTNV-1" source="QWpLgpskr140SuTvupG5-51" target="QWpLgpskr140SuTvupG5-29" edge="1">
          <mxGeometry width="160" relative="1" as="geometry">
            <mxPoint x="680.0099999999998" y="-129" as="sourcePoint" />
            <mxPoint x="1371" y="113" as="targetPoint" />
            <Array as="points">
              <mxPoint x="680" y="-179" />
              <mxPoint x="1230" y="-179" />
            </Array>
          </mxGeometry>
        </mxCell>
        <mxCell id="QWpLgpskr140SuTvupG5-32" value="&lt;p style=&quot;margin:0px;margin-top:4px;text-align:center;&quot;&gt;&lt;b&gt;DrawLine&lt;/b&gt;&lt;/p&gt;" style="verticalAlign=top;align=left;overflow=fill;html=1;whiteSpace=wrap;" parent="WIyWlLk6GJQsqaUBKTNV-1" vertex="1">
          <mxGeometry x="-40" y="181" width="90" height="60" as="geometry" />
        </mxCell>
        <mxCell id="QWpLgpskr140SuTvupG5-33" value="&lt;p style=&quot;margin:0px;margin-top:4px;text-align:center;&quot;&gt;&lt;b&gt;CodeSections&lt;/b&gt;&lt;/p&gt;" style="verticalAlign=top;align=left;overflow=fill;html=1;whiteSpace=wrap;" parent="WIyWlLk6GJQsqaUBKTNV-1" vertex="1">
          <mxGeometry x="-570" y="621" width="90" height="60" as="geometry" />
        </mxCell>
        <mxCell id="QWpLgpskr140SuTvupG5-34" value="" style="endArrow=diamondThin;endFill=0;endSize=24;html=1;rounded=0;entryX=0;entryY=1;entryDx=0;entryDy=0;exitX=0.5;exitY=0;exitDx=0;exitDy=0;" parent="WIyWlLk6GJQsqaUBKTNV-1" source="QWpLgpskr140SuTvupG5-33" target="VIlZ6i_Y9cjGdGsZTxkm-10" edge="1">
          <mxGeometry width="160" relative="1" as="geometry">
            <mxPoint x="-153" y="531" as="sourcePoint" />
            <mxPoint x="-420" y="532" as="targetPoint" />
          </mxGeometry>
        </mxCell>
        <mxCell id="QWpLgpskr140SuTvupG5-35" value="*" style="text;strokeColor=none;align=center;fillColor=none;html=1;verticalAlign=middle;whiteSpace=wrap;rounded=0;fontSize=24;" parent="WIyWlLk6GJQsqaUBKTNV-1" vertex="1">
          <mxGeometry x="-325" y="486" width="60" height="30" as="geometry" />
        </mxCell>
        <mxCell id="QWpLgpskr140SuTvupG5-36" value="*" style="text;strokeColor=none;align=center;fillColor=none;html=1;verticalAlign=middle;whiteSpace=wrap;rounded=0;fontSize=24;" parent="WIyWlLk6GJQsqaUBKTNV-1" vertex="1">
          <mxGeometry x="-480" y="551" width="60" height="30" as="geometry" />
        </mxCell>
        <mxCell id="QWpLgpskr140SuTvupG5-37" value="&lt;p style=&quot;margin:0px;margin-top:4px;text-align:center;&quot;&gt;&lt;b&gt;NodeLine&lt;/b&gt;&lt;/p&gt;" style="verticalAlign=top;align=left;overflow=fill;html=1;whiteSpace=wrap;" parent="WIyWlLk6GJQsqaUBKTNV-1" vertex="1">
          <mxGeometry x="-424" y="621" width="90" height="60" as="geometry" />
        </mxCell>
        <mxCell id="QWpLgpskr140SuTvupG5-38" value="" style="endArrow=diamondThin;endFill=0;endSize=24;html=1;rounded=0;entryX=0.5;entryY=1;entryDx=0;entryDy=0;exitX=0.5;exitY=0;exitDx=0;exitDy=0;" parent="WIyWlLk6GJQsqaUBKTNV-1" source="QWpLgpskr140SuTvupG5-37" target="VIlZ6i_Y9cjGdGsZTxkm-10" edge="1">
          <mxGeometry width="160" relative="1" as="geometry">
            <mxPoint x="-405" y="621" as="sourcePoint" />
            <mxPoint x="-350" y="532" as="targetPoint" />
          </mxGeometry>
        </mxCell>
        <mxCell id="QWpLgpskr140SuTvupG5-39" value="*" style="text;strokeColor=none;align=center;fillColor=none;html=1;verticalAlign=middle;whiteSpace=wrap;rounded=0;fontSize=24;" parent="WIyWlLk6GJQsqaUBKTNV-1" vertex="1">
          <mxGeometry x="-424" y="551" width="60" height="30" as="geometry" />
        </mxCell>
        <mxCell id="QWpLgpskr140SuTvupG5-42" value="&lt;p style=&quot;margin:0px;margin-top:4px;text-align:center;&quot;&gt;&lt;b&gt;Point&lt;/b&gt;&lt;/p&gt;&lt;p style=&quot;margin:0px;margin-top:4px;text-align:center;&quot;&gt;&lt;b&gt;&lt;br&gt;&lt;/b&gt;&lt;/p&gt;" style="verticalAlign=top;align=left;overflow=fill;html=1;whiteSpace=wrap;" parent="WIyWlLk6GJQsqaUBKTNV-1" vertex="1">
          <mxGeometry x="-280" y="621" width="90" height="60" as="geometry" />
        </mxCell>
        <mxCell id="QWpLgpskr140SuTvupG5-43" value="" style="endArrow=diamondThin;endFill=0;endSize=24;html=1;rounded=0;entryX=1;entryY=1;entryDx=0;entryDy=0;exitX=0.5;exitY=0;exitDx=0;exitDy=0;" parent="WIyWlLk6GJQsqaUBKTNV-1" source="QWpLgpskr140SuTvupG5-42" target="VIlZ6i_Y9cjGdGsZTxkm-10" edge="1">
          <mxGeometry width="160" relative="1" as="geometry">
            <mxPoint x="-322" y="631" as="sourcePoint" />
            <mxPoint x="-322" y="541" as="targetPoint" />
          </mxGeometry>
        </mxCell>
        <mxCell id="QWpLgpskr140SuTvupG5-44" value="*" style="text;strokeColor=none;align=center;fillColor=none;html=1;verticalAlign=middle;whiteSpace=wrap;rounded=0;fontSize=24;" parent="WIyWlLk6GJQsqaUBKTNV-1" vertex="1">
          <mxGeometry x="-350" y="551" width="60" height="30" as="geometry" />
        </mxCell>
        <mxCell id="QWpLgpskr140SuTvupG5-46" value="&lt;p style=&quot;margin:0px;margin-top:4px;text-align:center;&quot;&gt;&lt;b&gt;DecorationHolder&lt;/b&gt;&lt;/p&gt;" style="verticalAlign=top;align=left;overflow=fill;html=1;whiteSpace=wrap;" parent="WIyWlLk6GJQsqaUBKTNV-1" vertex="1">
          <mxGeometry x="10" y="581" width="110" height="60" as="geometry" />
        </mxCell>
        <mxCell id="QWpLgpskr140SuTvupG5-47" value="" style="endArrow=diamondThin;endFill=0;endSize=24;html=1;rounded=0;entryX=1;entryY=0.5;entryDx=0;entryDy=0;exitX=0;exitY=0;exitDx=0;exitDy=0;" parent="WIyWlLk6GJQsqaUBKTNV-1" source="VIlZ6i_Y9cjGdGsZTxkm-18" target="QWpLgpskr140SuTvupG5-46" edge="1">
          <mxGeometry width="160" relative="1" as="geometry">
            <mxPoint x="275" y="541" as="sourcePoint" />
            <mxPoint x="275" y="661" as="targetPoint" />
            <Array as="points">
              <mxPoint x="170" y="611" />
            </Array>
          </mxGeometry>
        </mxCell>
        <mxCell id="QWpLgpskr140SuTvupG5-48" value="*" style="text;strokeColor=none;align=center;fillColor=none;html=1;verticalAlign=middle;whiteSpace=wrap;rounded=0;fontSize=24;" parent="WIyWlLk6GJQsqaUBKTNV-1" vertex="1">
          <mxGeometry x="120" y="596" width="60" height="30" as="geometry" />
        </mxCell>
        <mxCell id="QWpLgpskr140SuTvupG5-49" value="" style="endArrow=diamondThin;endFill=0;endSize=24;html=1;rounded=0;exitX=0.5;exitY=0;exitDx=0;exitDy=0;" parent="WIyWlLk6GJQsqaUBKTNV-1" source="QWpLgpskr140SuTvupG5-46" edge="1">
          <mxGeometry width="160" relative="1" as="geometry">
            <mxPoint x="5" y="572.08" as="sourcePoint" />
            <mxPoint x="-10" y="531" as="targetPoint" />
            <Array as="points">
              <mxPoint x="65" y="561" />
              <mxPoint x="20" y="561" />
              <mxPoint x="-10" y="561" />
            </Array>
          </mxGeometry>
        </mxCell>
        <mxCell id="QWpLgpskr140SuTvupG5-51" value="«Abstract»&lt;br&gt;&lt;b&gt;Handler&lt;/b&gt;" style="html=1;dropTarget=0;whiteSpace=wrap;" parent="WIyWlLk6GJQsqaUBKTNV-1" vertex="1">
          <mxGeometry x="590" y="-129" width="100" height="60" as="geometry" />
        </mxCell>
        <mxCell id="QWpLgpskr140SuTvupG5-52" value="" style="endArrow=diamondThin;endFill=0;endSize=24;html=1;rounded=0;entryX=1;entryY=1;entryDx=0;entryDy=0;exitX=0.5;exitY=0;exitDx=0;exitDy=0;" parent="WIyWlLk6GJQsqaUBKTNV-1" source="QWpLgpskr140SuTvupG5-32" target="VIlZ6i_Y9cjGdGsZTxkm-8" edge="1">
          <mxGeometry width="160" relative="1" as="geometry">
            <mxPoint x="-0.5" y="391" as="sourcePoint" />
            <mxPoint x="-0.5" y="481" as="targetPoint" />
            <Array as="points" />
          </mxGeometry>
        </mxCell>
        <mxCell id="QWpLgpskr140SuTvupG5-58" value="&lt;p style=&quot;margin:0px;margin-top:4px;text-align:center;&quot;&gt;&lt;b&gt;PropertyChangeSupport&lt;/b&gt;&lt;/p&gt;" style="verticalAlign=top;align=left;overflow=fill;html=1;whiteSpace=wrap;" parent="WIyWlLk6GJQsqaUBKTNV-1" vertex="1">
          <mxGeometry x="-760" y="621" width="150" height="60" as="geometry" />
        </mxCell>
        <mxCell id="QWpLgpskr140SuTvupG5-59" value="Extends" style="endArrow=block;endSize=16;endFill=0;html=1;rounded=0;exitX=0.2;exitY=0;exitDx=0;exitDy=0;exitPerimeter=0;entryX=0.5;entryY=0;entryDx=0;entryDy=0;" parent="WIyWlLk6GJQsqaUBKTNV-1" target="QWpLgpskr140SuTvupG5-58" edge="1">
          <mxGeometry width="160" relative="1" as="geometry">
            <mxPoint x="-430" y="520" as="sourcePoint" />
            <mxPoint x="-700" y="531" as="targetPoint" />
            <Array as="points">
              <mxPoint x="-685" y="521" />
            </Array>
          </mxGeometry>
        </mxCell>
        <mxCell id="QWpLgpskr140SuTvupG5-61" value="&lt;p style=&quot;margin:0px;margin-top:4px;text-align:center;&quot;&gt;&lt;b&gt;PropertyChangeListener&lt;/b&gt;&lt;/p&gt;" style="verticalAlign=top;align=left;overflow=fill;html=1;whiteSpace=wrap;" parent="WIyWlLk6GJQsqaUBKTNV-1" vertex="1">
          <mxGeometry x="-215" y="181" width="145" height="60" as="geometry" />
        </mxCell>
        <mxCell id="QWpLgpskr140SuTvupG5-63" value="" style="endArrow=block;dashed=1;endFill=0;endSize=12;html=1;rounded=0;exitX=0.5;exitY=1;exitDx=0;exitDy=0;entryX=0.483;entryY=-0.006;entryDx=0;entryDy=0;entryPerimeter=0;" parent="WIyWlLk6GJQsqaUBKTNV-1" source="VIlZ6i_Y9cjGdGsZTxkm-8" target="QWpLgpskr140SuTvupG5-61" edge="1">
          <mxGeometry width="160" relative="1" as="geometry">
            <mxPoint x="-150" y="151" as="sourcePoint" />
            <mxPoint x="10" y="151" as="targetPoint" />
          </mxGeometry>
        </mxCell>
        <mxCell id="QWpLgpskr140SuTvupG5-64" value="Implements" style="edgeLabel;html=1;align=center;verticalAlign=middle;resizable=0;points=[];" parent="QWpLgpskr140SuTvupG5-63" vertex="1" connectable="0">
          <mxGeometry x="-0.1778" y="-1" relative="1" as="geometry">
            <mxPoint as="offset" />
          </mxGeometry>
        </mxCell>
        <mxCell id="QWpLgpskr140SuTvupG5-65" value="&lt;p style=&quot;margin:0px;margin-top:4px;text-align:center;&quot;&gt;&lt;b&gt;JPanel&lt;/b&gt;&lt;/p&gt;" style="verticalAlign=top;align=left;overflow=fill;html=1;whiteSpace=wrap;" parent="WIyWlLk6GJQsqaUBKTNV-1" vertex="1">
          <mxGeometry x="120" y="191" width="90" height="60" as="geometry" />
        </mxCell>
        <mxCell id="QWpLgpskr140SuTvupG5-66" value="Extends" style="endArrow=block;endSize=16;endFill=0;html=1;rounded=0;entryX=1;entryY=0;entryDx=0;entryDy=0;exitX=0;exitY=0.5;exitDx=0;exitDy=0;" parent="WIyWlLk6GJQsqaUBKTNV-1" source="VIlZ6i_Y9cjGdGsZTxkm-82" target="QWpLgpskr140SuTvupG5-65" edge="1">
          <mxGeometry x="0.0411" y="-2" width="160" relative="1" as="geometry">
            <mxPoint x="283" y="519" as="sourcePoint" />
            <mxPoint x="404" y="291" as="targetPoint" />
            <Array as="points">
              <mxPoint x="280" y="141" />
            </Array>
            <mxPoint as="offset" />
          </mxGeometry>
        </mxCell>
        <mxCell id="QWpLgpskr140SuTvupG5-67" value="Extends" style="endArrow=block;endSize=16;endFill=0;html=1;rounded=0;entryX=0;entryY=0;entryDx=0;entryDy=0;exitX=1;exitY=0.75;exitDx=0;exitDy=0;" parent="WIyWlLk6GJQsqaUBKTNV-1" source="VIlZ6i_Y9cjGdGsZTxkm-8" target="QWpLgpskr140SuTvupG5-65" edge="1">
          <mxGeometry x="0.1667" width="160" relative="1" as="geometry">
            <mxPoint x="350" y="171" as="sourcePoint" />
            <mxPoint x="350" y="291" as="targetPoint" />
            <Array as="points" />
            <mxPoint as="offset" />
          </mxGeometry>
        </mxCell>
        <mxCell id="QWpLgpskr140SuTvupG5-68" value="&lt;p style=&quot;margin:0px;margin-top:4px;text-align:center;&quot;&gt;&lt;b&gt;MouseListener&lt;/b&gt;&lt;/p&gt;" style="verticalAlign=top;align=left;overflow=fill;html=1;whiteSpace=wrap;" parent="WIyWlLk6GJQsqaUBKTNV-1" vertex="1">
          <mxGeometry x="-597" y="-349" width="120" height="60" as="geometry" />
        </mxCell>
        <mxCell id="QWpLgpskr140SuTvupG5-69" value="&lt;p style=&quot;margin:0px;margin-top:4px;text-align:center;&quot;&gt;&lt;b&gt;MouseMotionListener&lt;/b&gt;&lt;/p&gt;" style="verticalAlign=top;align=left;overflow=fill;html=1;whiteSpace=wrap;" parent="WIyWlLk6GJQsqaUBKTNV-1" vertex="1">
          <mxGeometry x="-314" y="-349" width="134" height="60" as="geometry" />
        </mxCell>
        <mxCell id="QWpLgpskr140SuTvupG5-70" value="" style="endArrow=block;dashed=1;endFill=0;endSize=12;html=1;rounded=0;exitX=0.5;exitY=1;exitDx=0;exitDy=0;entryX=-0.012;entryY=0.163;entryDx=0;entryDy=0;entryPerimeter=0;" parent="WIyWlLk6GJQsqaUBKTNV-1" source="QWpLgpskr140SuTvupG5-68" target="VIlZ6i_Y9cjGdGsZTxkm-9" edge="1">
          <mxGeometry width="160" relative="1" as="geometry">
            <mxPoint x="-477" y="-284" as="sourcePoint" />
            <mxPoint x="-447" y="-259" as="targetPoint" />
            <Array as="points">
              <mxPoint x="-537" y="-259" />
            </Array>
          </mxGeometry>
        </mxCell>
        <mxCell id="QWpLgpskr140SuTvupG5-71" value="Implements" style="edgeLabel;html=1;align=center;verticalAlign=middle;resizable=0;points=[];" parent="QWpLgpskr140SuTvupG5-70" vertex="1" connectable="0">
          <mxGeometry x="-0.1778" y="-1" relative="1" as="geometry">
            <mxPoint as="offset" />
          </mxGeometry>
        </mxCell>
        <mxCell id="QWpLgpskr140SuTvupG5-72" value="" style="endArrow=block;dashed=1;endFill=0;endSize=12;html=1;rounded=0;exitX=0.476;exitY=1.001;exitDx=0;exitDy=0;exitPerimeter=0;" parent="WIyWlLk6GJQsqaUBKTNV-1" source="QWpLgpskr140SuTvupG5-69" edge="1">
          <mxGeometry width="160" relative="1" as="geometry">
            <mxPoint x="-437" y="-299" as="sourcePoint" />
            <mxPoint x="-330" y="-259" as="targetPoint" />
            <Array as="points">
              <mxPoint x="-250" y="-259" />
            </Array>
          </mxGeometry>
        </mxCell>
        <mxCell id="QWpLgpskr140SuTvupG5-73" value="Implements" style="edgeLabel;html=1;align=center;verticalAlign=middle;resizable=0;points=[];" parent="QWpLgpskr140SuTvupG5-72" vertex="1" connectable="0">
          <mxGeometry x="-0.1778" y="-1" relative="1" as="geometry">
            <mxPoint as="offset" />
          </mxGeometry>
        </mxCell>
        <mxCell id="QWpLgpskr140SuTvupG5-74" value="&lt;p style=&quot;margin:0px;margin-top:4px;text-align:center;&quot;&gt;&lt;b&gt;JFrame&lt;/b&gt;&lt;/p&gt;" style="verticalAlign=top;align=left;overflow=fill;html=1;whiteSpace=wrap;" parent="WIyWlLk6GJQsqaUBKTNV-1" vertex="1">
          <mxGeometry x="314" y="-69" width="90" height="60" as="geometry" />
        </mxCell>
        <mxCell id="QWpLgpskr140SuTvupG5-75" value="" style="endArrow=diamondThin;endFill=0;endSize=24;html=1;rounded=0;exitX=0;exitY=0.5;exitDx=0;exitDy=0;entryX=1;entryY=0;entryDx=0;entryDy=0;" parent="WIyWlLk6GJQsqaUBKTNV-1" source="QWpLgpskr140SuTvupG5-74" target="VIlZ6i_Y9cjGdGsZTxkm-7" edge="1">
          <mxGeometry width="160" relative="1" as="geometry">
            <mxPoint x="315" y="-29" as="sourcePoint" />
            <mxPoint x="106" y="-28" as="targetPoint" />
            <Array as="points">
              <mxPoint x="240" y="11" />
            </Array>
          </mxGeometry>
        </mxCell>
        <mxCell id="QWpLgpskr140SuTvupG5-76" value="Extends" style="endArrow=block;endSize=16;endFill=0;html=1;rounded=0;exitX=1;exitY=0.5;exitDx=0;exitDy=0;" parent="WIyWlLk6GJQsqaUBKTNV-1" source="VIlZ6i_Y9cjGdGsZTxkm-79" edge="1">
          <mxGeometry x="0.1018" width="160" relative="1" as="geometry">
            <mxPoint x="405" y="181" as="sourcePoint" />
            <mxPoint x="160" y="191" as="targetPoint" />
            <Array as="points">
              <mxPoint x="160" y="-89" />
            </Array>
            <mxPoint as="offset" />
          </mxGeometry>
        </mxCell>
        <mxCell id="QWpLgpskr140SuTvupG5-77" value="&lt;p style=&quot;margin:0px;margin-top:4px;text-align:center;&quot;&gt;&lt;b&gt;JPopUpMenu&lt;/b&gt;&lt;/p&gt;" style="verticalAlign=top;align=left;overflow=fill;html=1;whiteSpace=wrap;" parent="WIyWlLk6GJQsqaUBKTNV-1" vertex="1">
          <mxGeometry x="-630" y="191" width="100" height="60" as="geometry" />
        </mxCell>
        <mxCell id="QWpLgpskr140SuTvupG5-78" value="" style="endArrow=diamondThin;endFill=0;endSize=24;html=1;rounded=0;entryX=0;entryY=0.5;entryDx=0;entryDy=0;exitX=1;exitY=0.5;exitDx=0;exitDy=0;" parent="WIyWlLk6GJQsqaUBKTNV-1" edge="1">
          <mxGeometry width="160" relative="1" as="geometry">
            <mxPoint x="-530" y="251" as="sourcePoint" />
            <mxPoint x="-450" y="251" as="targetPoint" />
          </mxGeometry>
        </mxCell>
        <mxCell id="QWpLgpskr140SuTvupG5-79" value="&lt;p style=&quot;margin:0px;margin-top:4px;text-align:center;&quot;&gt;&lt;b&gt;JMenuItem&lt;/b&gt;&lt;/p&gt;" style="verticalAlign=top;align=left;overflow=fill;html=1;whiteSpace=wrap;" parent="WIyWlLk6GJQsqaUBKTNV-1" vertex="1">
          <mxGeometry x="-630" y="81" width="100" height="60" as="geometry" />
        </mxCell>
        <mxCell id="QWpLgpskr140SuTvupG5-80" value="" style="endArrow=diamondThin;endFill=0;endSize=24;html=1;rounded=0;entryX=0;entryY=0;entryDx=0;entryDy=0;exitX=1;exitY=1;exitDx=0;exitDy=0;" parent="WIyWlLk6GJQsqaUBKTNV-1" source="QWpLgpskr140SuTvupG5-79" target="VIlZ6i_Y9cjGdGsZTxkm-72" edge="1">
          <mxGeometry width="160" relative="1" as="geometry">
            <mxPoint x="-610" y="61" as="sourcePoint" />
            <mxPoint x="-440" y="191" as="targetPoint" />
            <Array as="points">
              <mxPoint x="-490" y="191" />
            </Array>
          </mxGeometry>
        </mxCell>
        <mxCell id="QWpLgpskr140SuTvupG5-81" value="&lt;p style=&quot;margin:0px;margin-top:4px;text-align:center;&quot;&gt;&lt;b&gt;ChainMemberDecorator&lt;/b&gt;&lt;/p&gt;" style="verticalAlign=top;align=left;overflow=fill;html=1;whiteSpace=wrap;" parent="WIyWlLk6GJQsqaUBKTNV-1" vertex="1">
          <mxGeometry x="470" y="861" width="140" height="60" as="geometry" />
        </mxCell>
        <mxCell id="wSKvab-YeeRrBybbcbQ1-1" value="«Interface»&lt;br&gt;&lt;b&gt;Serializable&lt;/b&gt;" style="html=1;dropTarget=0;whiteSpace=wrap;" vertex="1" parent="WIyWlLk6GJQsqaUBKTNV-1">
          <mxGeometry x="170" y="1050" width="100" height="60" as="geometry" />
        </mxCell>
        <mxCell id="wSKvab-YeeRrBybbcbQ1-8" value="" style="endArrow=block;dashed=1;endFill=0;endSize=12;html=1;rounded=0;exitX=0.669;exitY=1;exitDx=0;exitDy=0;exitPerimeter=0;entryX=-0.04;entryY=0.133;entryDx=0;entryDy=0;entryPerimeter=0;" edge="1" parent="WIyWlLk6GJQsqaUBKTNV-1" source="VIlZ6i_Y9cjGdGsZTxkm-28" target="wSKvab-YeeRrBybbcbQ1-1">
          <mxGeometry width="160" relative="1" as="geometry">
            <mxPoint x="-310" y="1010" as="sourcePoint" />
            <mxPoint x="-150" y="1010" as="targetPoint" />
          </mxGeometry>
        </mxCell>
        <mxCell id="wSKvab-YeeRrBybbcbQ1-9" value="" style="endArrow=block;dashed=1;endFill=0;endSize=12;html=1;rounded=0;exitX=0.25;exitY=1;exitDx=0;exitDy=0;entryX=0.5;entryY=0;entryDx=0;entryDy=0;" edge="1" parent="WIyWlLk6GJQsqaUBKTNV-1">
          <mxGeometry width="160" relative="1" as="geometry">
            <mxPoint x="70" y="921" as="sourcePoint" />
            <mxPoint x="210" y="1050" as="targetPoint" />
            <Array as="points">
              <mxPoint x="210" y="1010" />
            </Array>
          </mxGeometry>
        </mxCell>
        <mxCell id="wSKvab-YeeRrBybbcbQ1-10" value="" style="endArrow=block;dashed=1;endFill=0;endSize=12;html=1;rounded=0;exitX=0.083;exitY=1.067;exitDx=0;exitDy=0;exitPerimeter=0;entryX=0.1;entryY=-0.067;entryDx=0;entryDy=0;entryPerimeter=0;" edge="1" parent="WIyWlLk6GJQsqaUBKTNV-1" source="VIlZ6i_Y9cjGdGsZTxkm-29" target="wSKvab-YeeRrBybbcbQ1-1">
          <mxGeometry width="160" relative="1" as="geometry">
            <mxPoint x="-80" y="960" as="sourcePoint" />
            <mxPoint x="80" y="960" as="targetPoint" />
          </mxGeometry>
        </mxCell>
        <mxCell id="wSKvab-YeeRrBybbcbQ1-11" value="" style="endArrow=block;dashed=1;endFill=0;endSize=12;html=1;rounded=0;exitX=0.34;exitY=1.052;exitDx=0;exitDy=0;exitPerimeter=0;entryX=0.599;entryY=-0.05;entryDx=0;entryDy=0;entryPerimeter=0;" edge="1" parent="WIyWlLk6GJQsqaUBKTNV-1" source="VIlZ6i_Y9cjGdGsZTxkm-36" target="wSKvab-YeeRrBybbcbQ1-1">
          <mxGeometry width="160" relative="1" as="geometry">
            <mxPoint x="160" y="960" as="sourcePoint" />
            <mxPoint x="320" y="960" as="targetPoint" />
          </mxGeometry>
        </mxCell>
        <mxCell id="wSKvab-YeeRrBybbcbQ1-12" value="" style="endArrow=block;dashed=1;endFill=0;endSize=12;html=1;rounded=0;exitX=0.123;exitY=1.033;exitDx=0;exitDy=0;exitPerimeter=0;entryX=0.19;entryY=-0.033;entryDx=0;entryDy=0;entryPerimeter=0;" edge="1" parent="WIyWlLk6GJQsqaUBKTNV-1" source="VIlZ6i_Y9cjGdGsZTxkm-30" target="wSKvab-YeeRrBybbcbQ1-1">
          <mxGeometry width="160" relative="1" as="geometry">
            <mxPoint x="-90" y="950" as="sourcePoint" />
            <mxPoint x="190" y="1030" as="targetPoint" />
            <Array as="points">
              <mxPoint x="190" y="1020" />
            </Array>
          </mxGeometry>
        </mxCell>
        <mxCell id="wSKvab-YeeRrBybbcbQ1-13" value="" style="endArrow=block;dashed=1;endFill=0;endSize=12;html=1;rounded=0;exitX=0.25;exitY=1;exitDx=0;exitDy=0;entryX=1;entryY=0.25;entryDx=0;entryDy=0;" edge="1" parent="WIyWlLk6GJQsqaUBKTNV-1" source="VIlZ6i_Y9cjGdGsZTxkm-40" target="wSKvab-YeeRrBybbcbQ1-1">
          <mxGeometry width="160" relative="1" as="geometry">
            <mxPoint x="710" y="990" as="sourcePoint" />
            <mxPoint x="870" y="990" as="targetPoint" />
          </mxGeometry>
        </mxCell>
        <mxCell id="wSKvab-YeeRrBybbcbQ1-14" value="" style="endArrow=block;dashed=1;endFill=0;endSize=12;html=1;rounded=0;exitX=0.25;exitY=1;exitDx=0;exitDy=0;entryX=1;entryY=0;entryDx=0;entryDy=0;" edge="1" parent="WIyWlLk6GJQsqaUBKTNV-1" source="VIlZ6i_Y9cjGdGsZTxkm-39" target="wSKvab-YeeRrBybbcbQ1-1">
          <mxGeometry width="160" relative="1" as="geometry">
            <mxPoint x="595" y="990" as="sourcePoint" />
            <mxPoint x="755" y="990" as="targetPoint" />
          </mxGeometry>
        </mxCell>
        <mxCell id="wSKvab-YeeRrBybbcbQ1-15" value="" style="endArrow=block;dashed=1;endFill=0;endSize=12;html=1;rounded=0;exitX=0.357;exitY=0.983;exitDx=0;exitDy=0;exitPerimeter=0;entryX=0.75;entryY=0;entryDx=0;entryDy=0;" edge="1" parent="WIyWlLk6GJQsqaUBKTNV-1" source="VIlZ6i_Y9cjGdGsZTxkm-37" target="wSKvab-YeeRrBybbcbQ1-1">
          <mxGeometry width="160" relative="1" as="geometry">
            <mxPoint x="300" y="970" as="sourcePoint" />
            <mxPoint x="230" y="1010" as="targetPoint" />
            <Array as="points">
              <mxPoint x="250" y="1000" />
            </Array>
          </mxGeometry>
        </mxCell>
        <mxCell id="wSKvab-YeeRrBybbcbQ1-16" value="" style="endArrow=block;dashed=1;endFill=0;endSize=12;html=1;rounded=0;exitX=0.357;exitY=0.983;exitDx=0;exitDy=0;exitPerimeter=0;entryX=0.88;entryY=-0.05;entryDx=0;entryDy=0;entryPerimeter=0;" edge="1" parent="WIyWlLk6GJQsqaUBKTNV-1" source="QWpLgpskr140SuTvupG5-81" target="wSKvab-YeeRrBybbcbQ1-1">
          <mxGeometry width="160" relative="1" as="geometry">
            <mxPoint x="460" y="980" as="sourcePoint" />
            <mxPoint x="250" y="1020" as="targetPoint" />
            <Array as="points">
              <mxPoint x="270" y="1010" />
            </Array>
          </mxGeometry>
        </mxCell>
        <mxCell id="wSKvab-YeeRrBybbcbQ1-17" value="" style="endArrow=block;dashed=1;endFill=0;endSize=12;html=1;rounded=0;exitX=0.11;exitY=1.05;exitDx=0;exitDy=0;exitPerimeter=0;entryX=0;entryY=0.75;entryDx=0;entryDy=0;" edge="1" parent="WIyWlLk6GJQsqaUBKTNV-1" source="VIlZ6i_Y9cjGdGsZTxkm-11" target="wSKvab-YeeRrBybbcbQ1-1">
          <mxGeometry width="160" relative="1" as="geometry">
            <mxPoint x="-222.5" y="596" as="sourcePoint" />
            <mxPoint x="-380" y="970" as="targetPoint" />
            <Array as="points">
              <mxPoint x="-290" y="800" />
              <mxPoint x="-390" y="830" />
              <mxPoint x="-390" y="970" />
            </Array>
          </mxGeometry>
        </mxCell>
        <mxCell id="wSKvab-YeeRrBybbcbQ1-18" value="" style="endArrow=block;dashed=1;endFill=0;endSize=12;html=1;rounded=0;exitX=0.25;exitY=1;exitDx=0;exitDy=0;entryX=0;entryY=1;entryDx=0;entryDy=0;" edge="1" parent="WIyWlLk6GJQsqaUBKTNV-1" source="QWpLgpskr140SuTvupG5-37" target="wSKvab-YeeRrBybbcbQ1-1">
          <mxGeometry width="160" relative="1" as="geometry">
            <mxPoint x="-510" y="800" as="sourcePoint" />
            <mxPoint x="-400" y="990" as="targetPoint" />
            <Array as="points">
              <mxPoint x="-400" y="980" />
            </Array>
          </mxGeometry>
        </mxCell>
        <mxCell id="wSKvab-YeeRrBybbcbQ1-19" value="" style="endArrow=block;dashed=1;endFill=0;endSize=12;html=1;rounded=0;exitX=0;exitY=0.5;exitDx=0;exitDy=0;entryX=0;entryY=0.5;entryDx=0;entryDy=0;" edge="1" parent="WIyWlLk6GJQsqaUBKTNV-1" source="QWpLgpskr140SuTvupG5-46" target="wSKvab-YeeRrBybbcbQ1-1">
          <mxGeometry width="160" relative="1" as="geometry">
            <mxPoint x="-160" y="641" as="sourcePoint" />
            <mxPoint x="-370" y="960" as="targetPoint" />
            <Array as="points">
              <mxPoint x="-140" y="670" />
              <mxPoint x="-300" y="840" />
              <mxPoint x="-370" y="840" />
              <mxPoint x="-370" y="940" />
            </Array>
          </mxGeometry>
        </mxCell>
        <mxCell id="wSKvab-YeeRrBybbcbQ1-20" value="" style="endArrow=block;dashed=1;endFill=0;endSize=12;html=1;rounded=0;exitX=0.5;exitY=1;exitDx=0;exitDy=0;entryX=0.5;entryY=1;entryDx=0;entryDy=0;" edge="1" parent="WIyWlLk6GJQsqaUBKTNV-1" source="QWpLgpskr140SuTvupG5-33" target="wSKvab-YeeRrBybbcbQ1-1">
          <mxGeometry width="160" relative="1" as="geometry">
            <mxPoint x="-605" y="930" as="sourcePoint" />
            <mxPoint x="200" y="1120" as="targetPoint" />
            <Array as="points">
              <mxPoint x="-520" y="1130" />
              <mxPoint x="220" y="1130" />
            </Array>
          </mxGeometry>
        </mxCell>
        <mxCell id="wSKvab-YeeRrBybbcbQ1-21" value="" style="endArrow=block;dashed=1;endFill=0;endSize=12;html=1;rounded=0;exitX=1;exitY=0;exitDx=0;exitDy=0;entryX=1;entryY=0.5;entryDx=0;entryDy=0;" edge="1" parent="WIyWlLk6GJQsqaUBKTNV-1" source="VIlZ6i_Y9cjGdGsZTxkm-18" target="wSKvab-YeeRrBybbcbQ1-1">
          <mxGeometry width="160" relative="1" as="geometry">
            <mxPoint x="302.5" y="627" as="sourcePoint" />
            <mxPoint x="870" y="1080" as="targetPoint" />
            <Array as="points">
              <mxPoint x="870" y="640" />
              <mxPoint x="870" y="1060" />
            </Array>
          </mxGeometry>
        </mxCell>
        <mxCell id="wSKvab-YeeRrBybbcbQ1-22" value="" style="endArrow=block;dashed=1;endFill=0;endSize=12;html=1;rounded=0;exitX=1;exitY=0.5;exitDx=0;exitDy=0;entryX=1;entryY=0.75;entryDx=0;entryDy=0;" edge="1" parent="WIyWlLk6GJQsqaUBKTNV-1" source="VIlZ6i_Y9cjGdGsZTxkm-16" target="wSKvab-YeeRrBybbcbQ1-1">
          <mxGeometry width="160" relative="1" as="geometry">
            <mxPoint x="320" y="500" as="sourcePoint" />
            <mxPoint x="940" y="1100" as="targetPoint" />
            <Array as="points">
              <mxPoint x="940" y="500" />
              <mxPoint x="940" y="1080" />
            </Array>
          </mxGeometry>
        </mxCell>
        <mxCell id="wSKvab-YeeRrBybbcbQ1-23" value="&lt;p style=&quot;margin:0px;margin-top:4px;text-align:center;&quot;&gt;&lt;b&gt;FileCode&lt;/b&gt;&lt;/p&gt;" style="verticalAlign=top;align=left;overflow=fill;html=1;whiteSpace=wrap;" vertex="1" parent="WIyWlLk6GJQsqaUBKTNV-1">
          <mxGeometry x="6" y="-320" width="100" height="60" as="geometry" />
        </mxCell>
        <mxCell id="wSKvab-YeeRrBybbcbQ1-24" value="" style="endArrow=diamondThin;endFill=0;endSize=24;html=1;rounded=0;entryX=0.5;entryY=0;entryDx=0;entryDy=0;exitX=0.5;exitY=1;exitDx=0;exitDy=0;" edge="1" parent="WIyWlLk6GJQsqaUBKTNV-1" source="wSKvab-YeeRrBybbcbQ1-23" target="VIlZ6i_Y9cjGdGsZTxkm-79">
          <mxGeometry width="160" relative="1" as="geometry">
            <mxPoint x="-75" y="-170" as="sourcePoint" />
            <mxPoint x="85" y="-170" as="targetPoint" />
          </mxGeometry>
        </mxCell>
        <mxCell id="wSKvab-YeeRrBybbcbQ1-29" value="" style="endArrow=diamondThin;endFill=0;endSize=24;html=1;rounded=0;entryX=0.995;entryY=0.638;entryDx=0;entryDy=0;entryPerimeter=0;exitX=0.839;exitY=0.024;exitDx=0;exitDy=0;exitPerimeter=0;" edge="1" parent="WIyWlLk6GJQsqaUBKTNV-1" source="VIlZ6i_Y9cjGdGsZTxkm-82" target="wSKvab-YeeRrBybbcbQ1-23">
          <mxGeometry width="160" relative="1" as="geometry">
            <mxPoint x="450" y="-280" as="sourcePoint" />
            <mxPoint x="413" y="-280" as="targetPoint" />
            <Array as="points">
              <mxPoint x="420" y="-282" />
            </Array>
          </mxGeometry>
        </mxCell>
        <mxCell id="wSKvab-YeeRrBybbcbQ1-30" value="" style="endArrow=diamondThin;endFill=0;endSize=24;html=1;rounded=0;entryX=1;entryY=0;entryDx=0;entryDy=0;exitX=0.75;exitY=0;exitDx=0;exitDy=0;" edge="1" parent="WIyWlLk6GJQsqaUBKTNV-1" source="VIlZ6i_Y9cjGdGsZTxkm-82" target="VIlZ6i_Y9cjGdGsZTxkm-79">
          <mxGeometry width="160" relative="1" as="geometry">
            <mxPoint x="430" y="-119" as="sourcePoint" />
            <mxPoint x="170" y="-119" as="targetPoint" />
            <Array as="points">
              <mxPoint x="410" y="-119" />
            </Array>
          </mxGeometry>
        </mxCell>
      </root>
    </mxGraphModel>
  </diagram>
</mxfile>
